<?xml version="1.0" encoding="iso-8859-1"?>
<!-- Generator: Adobe Illustrator 17.1.0, SVG Export Plug-In . SVG Version: 6.00 Build 0)  -->
<!DOCTYPE svg PUBLIC "-//W3C//DTD SVG 1.1//EN" "http://www.w3.org/Graphics/SVG/1.1/DTD/svg11.dtd">
<svg version="1.1" id="Capa_1" xmlns="http://www.w3.org/2000/svg" xmlns:xlink="http://www.w3.org/1999/xlink" x="0px" y="0px"
	 viewBox="0 0 459.522 459.522" style="enable-background:new 0 0 459.522 459.522;" xml:space="preserve">
<g>
	<path style="fill:none;" d="M257.464,255.368c7.65,3.36,16.547,4.198,26.084,2.541l-24.393-6.447
		C258.593,252.781,258.029,254.081,257.464,255.368z"/>
	<path style="fill:#6ECCAE;" d="M232.194,261.941c-6.024-5.992-10.526-13.168-13.441-21.157l-55.272-14.608
		c-7.683,20.752-9.444,34.489-5.752,43.654c2.87,7.124,9.683,12.788,21.416,17.812c3.074,1.046,6.266,2.176,9.53,3.388
		c3.682,1.006,7.027,1.52,10.073,1.52C209.229,292.55,219.25,286.838,232.194,261.941z"/>
	<path style="fill:#6ECCAE;" d="M214.821,219.058c-0.2-10.176,1.656-20.976,5.694-31.891c1.916-5.18,7.667-7.826,12.849-5.91
		c5.18,1.916,7.825,7.669,5.909,12.848c-3.954,10.691-5.231,21.102-3.985,30.362l12.132,3.206
		c6.483-16.072,10.556-28.734,10.063-38.255c-0.41-7.905-3.75-16.482-25.231-25.637c-8.94-3.814-16.143-5.668-22.025-5.668
		c-15.655,0-24.37,15.119-39.129,49.388L214.821,219.058z"/>
	<path style="fill:#FFEBD4;" d="M304.149,96.57h-73.454c4.403,16.159,19.197,28.076,36.729,28.076
		C284.954,124.646,299.746,112.728,304.149,96.57z"/>
	<path style="fill:#E85512;" d="M267.424,48.513c-17.531,0-32.333,11.908-36.737,28.057h73.47
		C299.754,60.421,284.953,48.513,267.424,48.513z"/>
	<path style="fill:#6ECCAE;" d="M226.435,42.003c2.356,0,4.609-0.744,6.516-2.151c4.88-3.6,5.921-10.5,2.321-15.38
		c-2.097-2.841-5.33-4.472-8.871-4.472c-2.354,0-4.606,0.743-6.512,2.149c-4.881,3.601-5.923,10.503-2.322,15.384
		C219.664,40.374,222.896,42.003,226.435,42.003z"/>
	<path d="M215.767,60.099c-4.089,7.944-6.414,16.938-6.414,26.471v0v0c0,32.023,26.05,58.076,58.07,58.076
		c32.018,0,58.066-26.053,58.066-58.076v0v0c0-32.013-26.049-58.057-58.066-58.057c-3.432,0-6.79,0.316-10.06,0.89
		c-0.294-5.874-2.252-11.728-5.998-16.805C245.546,4.709,236.213,0,226.401,0c-6.658,0-13.016,2.094-18.385,6.055
		c-13.755,10.148-16.69,29.596-6.542,43.352C205.113,54.338,210.124,58.027,215.767,60.099z M219.889,22.149
		c1.905-1.406,4.157-2.149,6.512-2.149c3.541,0,6.775,1.631,8.871,4.472c3.6,4.88,2.559,11.78-2.321,15.38
		c-1.907,1.407-4.16,2.151-6.516,2.151c-3.539,0-6.771-1.629-8.867-4.47C213.967,32.652,215.008,25.75,219.889,22.149z
		 M230.695,96.57h73.454c-4.403,16.159-19.194,28.076-36.725,28.076C249.891,124.646,235.098,112.728,230.695,96.57z M230.687,76.57
		c4.404-16.149,19.206-28.057,36.737-28.057c17.529,0,32.33,11.908,36.733,28.057H230.687z"/>
	<path d="M416.166,433.808c-4.72-2.87-10.87-1.373-13.741,3.345c-0.023,0.038-2.504,3.745-9.575,1.799
		c-1.227-0.326-56.966-15.112-119.879-31.774c3.498-32.834-5.113-60.105-25.675-81.155c-7.724-7.907-16.599-14.386-25.825-19.801
		c10.707-6.567,19.391-17.956,27.339-32.83c7.672,3.457,16.215,5.268,25.282,5.309c0.104,0,0.206,0.001,0.31,0.001
		c13.664,0,28.271-4.135,42.497-11.979l24.832,6.563c0.856,0.227,1.715,0.334,2.561,0.334c4.428,0,8.477-2.964,9.661-7.447
		c1.411-5.339-1.773-10.812-7.112-12.223l-79.947-21.129c6.927-17.504,11.214-31.858,10.562-44.437
		c-1.285-24.818-21.939-36.427-37.358-42.999c-11.467-4.893-21.238-7.271-29.871-7.271c-30.642,0-43.891,29.506-58.679,64.221
		l-72.507-19.163l1.325-5.015c1.411-5.339-1.773-10.812-7.113-12.223c-5.341-1.414-10.812,1.774-12.223,7.113l-1.325,5.015
		l-8.595-2.271c-5.344-1.413-10.813,1.774-12.223,7.113c-1.411,5.339,1.773,10.812,7.113,12.223l8.595,2.271l-1.422,5.378
		c-1.411,5.339,1.774,10.812,7.113,12.223c0.856,0.227,1.716,0.335,2.562,0.335c4.428,0,8.477-2.964,9.662-7.447l1.421-5.378
		l70.128,18.534c-9.172,25.34-10.518,42.269-4.881,56.261c4.98,12.362,15.203,21.5,32.147,28.745
		c0.013,0.006,0.025,0.011,0.038,0.017c0.079,0.034,0.153,0.069,0.232,0.103c3.805,1.616,7.436,2.918,10.921,3.916
		c39.315,14.813,75.106,38.434,70.852,91.903c-70.617-18.697-144.045-38.102-156.356-41.222c-5.348-1.354-10.793,1.884-12.15,7.238
		c-1.356,5.353,1.884,10.793,7.238,12.15c24.489,6.204,292.914,77.412,295.532,78.106c3.202,0.882,6.195,1.263,8.97,1.263
		c12.115,0,20.052-7.276,22.91-11.973C422.382,442.831,420.884,436.679,416.166,433.808z M188.675,291.03
		c-3.264-1.212-6.456-2.342-9.53-3.388c-11.733-5.024-18.546-10.688-21.416-17.812c-3.692-9.165-1.931-22.902,5.752-43.654
		l55.272,14.608c2.915,7.989,7.417,15.166,13.441,21.157c-12.943,24.897-22.964,30.609-33.445,30.609
		C195.702,292.55,192.357,292.036,188.675,291.03z M210.227,158.114c5.881,0,13.085,1.854,22.025,5.668
		c21.48,9.155,24.82,17.732,25.231,25.637c0.493,9.52-3.581,22.183-10.063,38.255l-12.132-3.206
		c-1.246-9.259,0.031-19.671,3.985-30.362c1.916-5.18-0.729-10.932-5.909-12.848c-5.182-1.917-10.933,0.73-12.849,5.91
		c-4.037,10.915-5.894,21.715-5.694,31.891l-43.723-11.556C185.857,173.234,194.572,158.114,210.227,158.114z M283.548,257.909
		c-9.537,1.657-18.434,0.819-26.084-2.541c0.565-1.287,1.129-2.586,1.692-3.905L283.548,257.909z"/>
</g>
<g>
</g>
<g>
</g>
<g>
</g>
<g>
</g>
<g>
</g>
<g>
</g>
<g>
</g>
<g>
</g>
<g>
</g>
<g>
</g>
<g>
</g>
<g>
</g>
<g>
</g>
<g>
</g>
<g>
</g>
</svg>
