<?xml version="1.0" encoding="iso-8859-1"?>
<!-- Generator: Adobe Illustrator 19.0.0, SVG Export Plug-In . SVG Version: 6.00 Build 0)  -->
<svg version="1.1" id="Layer_1" xmlns="http://www.w3.org/2000/svg" xmlns:xlink="http://www.w3.org/1999/xlink" x="0px" y="0px"
	 viewBox="0 0 512.244 512.244" style="enable-background:new 0 0 512.244 512.244;" xml:space="preserve">
<g transform="translate(1 1)">
	<g>
		<path style="fill:#FFDD09;" d="M58.855,477.11c-5.12,0-8.533-3.413-8.533-8.533V195.51c0-5.12,3.413-8.533,8.533-8.533
			s8.533,3.413,8.533,8.533v273.067C67.388,473.697,63.975,477.11,58.855,477.11z"/>
		<path style="fill:#FFDD09;" d="M67.388,391.777H50.322c-5.12,0-8.533-3.413-8.533-8.533s3.413-8.533,8.533-8.533h17.067
			c5.12,0,8.533,3.413,8.533,8.533S72.508,391.777,67.388,391.777z"/>
		<path style="fill:#FFDD09;" d="M67.388,306.444H50.322c-5.12,0-8.533-3.413-8.533-8.533c0-5.12,3.413-8.533,8.533-8.533h17.067
			c5.12,0,8.533,3.413,8.533,8.533C75.922,303.03,72.508,306.444,67.388,306.444z"/>
		<path style="fill:#FFDD09;" d="M468.455,477.11c-5.12,0-8.533-3.413-8.533-8.533V195.51c0-5.12,3.413-8.533,8.533-8.533
			c5.12,0,8.533,3.413,8.533,8.533v273.067C476.988,473.697,473.575,477.11,468.455,477.11z"/>
		<path style="fill:#FFDD09;" d="M476.988,391.777h-17.067c-5.12,0-8.533-3.413-8.533-8.533s3.413-8.533,8.533-8.533h17.067
			c5.12,0,8.533,3.413,8.533,8.533S482.108,391.777,476.988,391.777z"/>
		<path style="fill:#FFDD09;" d="M476.988,306.444h-17.067c-5.12,0-8.533-3.413-8.533-8.533c0-5.12,3.413-8.533,8.533-8.533h17.067
			c5.12,0,8.533,3.413,8.533,8.533C485.522,303.03,482.108,306.444,476.988,306.444z"/>
	</g>
	<g>
		<path style="fill:#54C9FD;" d="M67.388,485.644H33.255c-5.12,0-8.533-3.413-8.533-8.533v-8.533c0-5.12,3.413-8.533,8.533-8.533
			h34.133c5.12,0,8.533,3.413,8.533,8.533v8.533C75.922,482.23,72.508,485.644,67.388,485.644"/>
		<path style="fill:#54C9FD;" d="M476.988,485.644h-34.133c-5.12,0-8.533-3.413-8.533-8.533v-8.533c0-5.12,3.413-8.533,8.533-8.533
			h34.133c5.12,0,8.533,3.413,8.533,8.533v8.533C485.522,482.23,482.108,485.644,476.988,485.644"/>
	</g>
	<g>
		<path style="fill:#FFDD09;" d="M67.388,186.977H33.255V24.844c0-9.387,7.68-17.067,17.067-17.067s17.067,7.68,17.067,17.067
			V186.977z"/>
		<path style="fill:#FFDD09;" d="M476.988,186.977h-34.133V24.844c0-9.387,7.68-17.067,17.067-17.067
			c9.387,0,17.067,7.68,17.067,17.067V186.977z"/>
		<path style="fill:#FFDD09;" d="M161.255,499.297L161.255,499.297c21.333,9.387,46.933-0.853,56.32-22.187l177.493-409.6
			c9.387-21.333-0.853-46.933-22.187-56.32l0,0c-21.333-9.387-46.933,0.853-56.32,22.187l-177.493,409.6
			C129.682,465.164,139.922,489.91,161.255,499.297"/>
		<path style="fill:#FFDD09;" d="M254.268,177.59L191.975,33.377c-9.387-21.333-34.133-31.573-56.32-22.187
			c-21.333,9.387-31.573,34.133-22.187,56.32l93.867,217.6L254.268,177.59z"/>
		<path style="fill:#FFDD09;" d="M300.348,285.11l-46.08,106.667l36.693,84.48c9.387,21.333,34.133,31.573,56.32,22.187
			c21.333-9.387,31.573-34.133,22.187-56.32L300.348,285.11z"/>
	</g>
	<g>
		<path style="fill:#54C9FD;" d="M267.922,254.39L267.922,254.39c-8.533-3.413-18.773,0-22.187,8.533l-23.893,54.613
			c-1.707,4.267,0,9.387,4.267,11.093l15.36,6.827c4.267,1.707,9.387,0,11.093-4.267l23.893-54.613
			C280.722,268.044,277.308,257.804,267.922,254.39"/>
		<polygon style="fill:#54C9FD;" points="331.922,213.43 287.548,101.644 306.322,57.27 351.548,169.057 		"/>
		<path style="fill:#54C9FD;" d="M351.548,169.057L306.322,57.27l10.24-23.893c2.56-5.973,6.827-11.093,11.093-15.36l42.667,106.667
			L351.548,169.057z"/>
		<polygon style="fill:#54C9FD;" points="176.615,213.43 220.988,101.644 202.215,57.27 156.988,169.057 		"/>
		<path style="fill:#54C9FD;" d="M156.988,169.057L202.215,57.27l-10.24-23.893c-2.56-5.973-6.827-11.093-11.093-15.36
			l-42.667,106.667L156.988,169.057z"/>
	</g>
	<path d="M50.322,468.577c-5.12,0-8.533-3.413-8.533-8.533V186.977c0-5.12,3.413-8.533,8.533-8.533s8.533,3.413,8.533,8.533v273.067
		C58.855,465.164,55.442,468.577,50.322,468.577z"/>
	<path d="M67.388,494.177H33.255c-9.387,0-17.067-7.68-17.067-17.067v-8.533c0-9.387,7.68-17.067,17.067-17.067h34.133
		c9.387,0,17.067,7.68,17.067,17.067v8.533C84.455,486.497,76.775,494.177,67.388,494.177z M67.388,477.11v8.533V477.11
		L67.388,477.11z M33.255,468.577v8.533h34.133v-8.533H33.255z"/>
	<path d="M50.322,511.244c-5.12,0-8.533-3.413-8.533-8.533v-17.067c0-5.12,3.413-8.533,8.533-8.533s8.533,3.413,8.533,8.533v17.067
		C58.855,507.83,55.442,511.244,50.322,511.244z"/>
	<path d="M67.388,195.51H33.255c-5.12,0-8.533-3.413-8.533-8.533V24.844c0-14.507,11.093-25.6,25.6-25.6s25.6,11.093,25.6,25.6
		v162.133C75.922,192.097,72.508,195.51,67.388,195.51z M41.788,178.444h17.067v-153.6c0-5.12-3.413-8.533-8.533-8.533
		s-8.533,3.413-8.533,8.533V178.444z"/>
	<path d="M33.255,127.244c-2.56,0-4.267-0.853-5.973-2.56c-3.413-3.413-3.413-8.533,0-11.947l34.133-34.133
		c3.413-3.413,8.533-3.413,11.947,0c3.413,3.413,3.413,8.533,0,11.947l-34.133,34.133C37.522,126.39,35.815,127.244,33.255,127.244z
		"/>
	<path d="M33.255,169.91c-2.56,0-4.267-0.853-5.973-2.56c-3.413-3.413-3.413-8.533,0-11.947l34.133-34.133
		c3.413-3.413,8.533-3.413,11.947,0c3.413,3.413,3.413,8.533,0,11.947L39.228,167.35C37.522,169.057,35.815,169.91,33.255,169.91z"
		/>
	<path d="M58.855,383.244H41.788c-5.12,0-8.533-3.413-8.533-8.533s3.413-8.533,8.533-8.533h17.067c5.12,0,8.533,3.413,8.533,8.533
		S63.975,383.244,58.855,383.244z"/>
	<path d="M58.855,297.91H41.788c-5.12,0-8.533-3.413-8.533-8.533s3.413-8.533,8.533-8.533h17.067c5.12,0,8.533,3.413,8.533,8.533
		S63.975,297.91,58.855,297.91z"/>
	<path d="M459.922,468.577c-5.12,0-8.533-3.413-8.533-8.533V186.977c0-5.12,3.413-8.533,8.533-8.533c5.12,0,8.533,3.413,8.533,8.533
		v273.067C468.455,465.164,465.042,468.577,459.922,468.577z"/>
	<path d="M476.988,494.177h-34.133c-9.387,0-17.067-7.68-17.067-17.067v-8.533c0-9.387,7.68-17.067,17.067-17.067h34.133
		c9.387,0,17.067,7.68,17.067,17.067v8.533C494.055,486.497,486.375,494.177,476.988,494.177z M476.988,477.11v8.533V477.11
		L476.988,477.11z M442.855,468.577v8.533h34.133v-8.533H442.855z"/>
	<path d="M459.922,511.244c-5.12,0-8.533-3.413-8.533-8.533v-17.067c0-5.12,3.413-8.533,8.533-8.533c5.12,0,8.533,3.413,8.533,8.533
		v17.067C468.455,507.83,465.042,511.244,459.922,511.244z"/>
	<path d="M476.988,195.51h-34.133c-5.12,0-8.533-3.413-8.533-8.533V24.844c0-14.507,11.093-25.6,25.6-25.6
		c14.507,0,25.6,11.093,25.6,25.6v162.133C485.522,192.097,482.108,195.51,476.988,195.51z M451.388,178.444h17.067v-153.6
		c0-5.12-3.413-8.533-8.533-8.533c-5.12,0-8.533,3.413-8.533,8.533V178.444z"/>
	<path d="M442.855,127.244c-2.56,0-4.267-0.853-5.973-2.56c-3.413-3.413-3.413-8.533,0-11.947l34.133-34.133
		c3.413-3.413,8.533-3.413,11.947,0c3.413,3.413,3.413,8.533,0,11.947l-34.133,34.133
		C447.122,126.39,445.415,127.244,442.855,127.244z"/>
	<path d="M442.855,169.91c-2.56,0-4.267-0.853-5.973-2.56c-3.413-3.413-3.413-8.533,0-11.947l34.133-34.133
		c3.413-3.413,8.533-3.413,11.947,0c3.413,3.413,3.413,8.533,0,11.947l-34.133,34.133
		C447.122,169.057,445.415,169.91,442.855,169.91z"/>
	<path d="M468.455,383.244h-17.067c-5.12,0-8.533-3.413-8.533-8.533s3.413-8.533,8.533-8.533h17.067c5.12,0,8.533,3.413,8.533,8.533
		S473.575,383.244,468.455,383.244z"/>
	<path d="M468.455,297.91h-17.067c-5.12,0-8.533-3.413-8.533-8.533s3.413-8.533,8.533-8.533h17.067c5.12,0,8.533,3.413,8.533,8.533
		S473.575,297.91,468.455,297.91z"/>
	<path d="M176.615,221.964c-3.413,0-6.827-1.707-7.68-5.12l-18.773-44.373c-0.853-1.707-0.853-4.267,0-6.827l45.227-111.787
		c0-3.413,3.413-5.12,6.827-5.12c3.413,0,6.827,1.707,7.68,5.12l18.773,44.373c0.853,1.707,0.853,4.267,0,6.827l-45.227,111.787
		C182.588,220.257,180.028,221.964,176.615,221.964L176.615,221.964z M166.375,169.057l9.387,22.187l35.84-89.6l-9.387-22.187
		L166.375,169.057z"/>
	<path d="M156.988,177.59c-3.413,0-6.827-1.707-7.68-5.12l-18.773-44.373c-0.853-1.707-0.853-4.267,0-6.827l42.667-106.667
		c0.853-2.56,3.413-4.267,5.973-5.12c2.56-0.853,5.12,0,7.68,1.707c5.973,5.12,10.24,11.093,13.653,17.92l10.24,23.893
		c0.853,1.707,0.853,4.267,0,6.827l-45.227,111.787C163.815,175.884,160.402,177.59,156.988,177.59L156.988,177.59z
		 M147.602,124.684l9.387,22.187l35.84-89.6l-8.533-20.48c0-0.853-0.853-0.853-0.853-1.707L147.602,124.684z"/>
	<path d="M330.215,485.644c-10.24,0-19.627-5.973-23.893-15.36l-27.307-63.147c-1.707-4.267,0-9.387,4.267-11.093
		c4.267-1.707,9.387,0,11.093,4.267l27.307,63.147c1.707,4.267,6.827,5.973,11.093,4.267c4.267-1.707,9.387,0,11.093,4.267
		c1.707,4.267,0,9.387-4.267,11.093C337.042,484.79,333.628,485.644,330.215,485.644z"/>
	<path d="M178.322,511.244c-6.827,0-13.653-1.707-20.48-4.267l0,0c-25.6-11.093-38.4-40.96-26.453-67.413l177.493-409.6
		c11.093-25.6,40.96-38.4,67.413-26.453c12.8,5.12,22.187,15.36,27.307,28.16c5.12,12.8,5.12,26.453-0.853,39.253l-177.493,409.6
		c-5.12,12.8-15.36,22.187-28.16,27.307C191.122,510.39,185.148,511.244,178.322,511.244z M355.815,16.31
		c-13.653,0-25.6,7.68-31.573,20.48l-177.493,409.6c-7.68,17.067,0.853,37.547,17.92,44.373l0,0c8.533,3.413,17.92,3.413,26.453,0
		c8.533-3.413,15.36-10.24,18.773-17.92l177.493-409.6c7.68-17.067-0.853-37.547-17.92-44.373
		C364.348,17.164,360.082,16.31,355.815,16.31z"/>
	<path d="M245.735,345.697c-2.56,0-4.267-0.853-6.827-1.707l-15.36-6.827c-8.533-3.413-12.8-13.653-9.387-22.187l23.893-54.613
		c2.56-5.973,7.68-11.093,13.653-13.653c5.973-2.56,13.653-2.56,19.627,0l0,0c5.973,2.56,11.093,7.68,13.653,13.653
		c2.56,5.973,2.56,13.653,0,19.627l-23.893,54.613c-1.707,4.267-5.12,7.68-9.387,9.387
		C250.002,344.844,248.295,345.697,245.735,345.697z M261.948,261.217c-3.413,0-6.827,1.707-7.68,5.12l-23.893,54.613l15.36,6.827
		l23.893-54.613c0.853-1.707,0.853-4.267,0-6.827c-0.853-1.707-2.56-3.413-4.267-4.267l0,0
		C263.655,262.07,262.802,261.217,261.948,261.217z"/>
	<path d="M331.922,221.964L331.922,221.964c-3.413,0-6.827-2.56-7.68-5.12l-45.227-111.787c-0.853-1.707-0.853-4.267,0-6.827
		l18.773-44.373c1.707-3.413,5.12-5.12,8.533-5.12l0,0c3.413,0,6.827,2.56,7.68,5.12l45.227,111.787
		c0.853,1.707,0.853,4.267,0,6.827l-18.773,44.373C338.748,220.257,335.335,221.964,331.922,221.964z M296.935,101.644l35.84,89.6
		l9.387-22.187l-35.84-89.6L296.935,101.644z"/>
	<path d="M351.548,177.59C351.548,177.59,350.695,177.59,351.548,177.59c-3.413,0-6.827-2.56-7.68-5.12L298.642,60.684
		c-0.853-1.707-0.853-4.267,0-6.827l10.24-23.893c2.56-6.827,7.68-12.8,13.653-17.92c1.707-1.707,5.12-2.56,7.68-1.707
		c2.56,0.853,5.12,2.56,5.973,5.12l42.667,106.667c0.853,1.707,0.853,4.267,0,6.827l-18.773,44.373
		C357.522,175.884,354.962,177.59,351.548,177.59z M315.708,57.27l35.84,89.6l9.387-22.187l-35.84-89.6
		c0,0.853-0.853,0.853-0.853,1.707L315.708,57.27z"/>
	<path d="M178.322,485.644c-3.413,0-6.827-0.853-10.24-1.707c-4.267-1.707-5.973-6.827-4.267-11.093s6.827-5.973,11.093-4.267
		c4.267,1.707,9.387,0,11.093-4.267l27.307-63.147c1.707-4.267,6.827-5.973,11.093-4.267s5.973,6.827,4.267,11.093l-27.307,63.147
		C197.948,479.67,188.562,485.644,178.322,485.644z"/>
	<path d="M207.335,293.644c-3.413,0-6.827-1.707-7.68-5.12l-93.867-217.6c-5.12-12.8-5.973-26.453-0.853-39.253
		s14.507-23.04,27.307-28.16s26.453-5.973,39.253-0.853s23.04,14.507,28.16,27.307l62.293,143.36c0.853,2.56,0.853,4.267,0,6.827
		l-46.08,107.52C214.162,291.084,210.748,293.644,207.335,293.644z M152.722,16.31c-4.267,0-9.387,0.853-13.653,2.56
		c-17.067,7.68-25.6,27.307-17.92,45.227l86.187,199.68l37.547-86.187l-60.587-140.8c-3.413-8.533-10.24-14.507-18.773-17.92
		C161.255,17.164,156.988,16.31,152.722,16.31z"/>
	<path d="M330.215,511.244c-19.627,0-38.4-11.947-46.933-30.72l-36.693-85.333c-0.853-2.56-0.853-4.267,0-6.827l46.08-107.52
		c1.707-3.413,4.267-5.12,7.68-5.12c3.413,0,6.827,1.707,7.68,5.12l68.267,158.72c5.12,12.8,5.973,26.453,0.853,39.253
		c-5.12,12.8-14.507,23.04-27.307,28.16C343.868,509.537,337.042,511.244,330.215,511.244z M263.655,391.777l34.987,81.067
		c7.68,17.067,27.307,25.6,45.227,17.92c17.067-7.68,25.6-27.307,17.92-45.227l-61.44-139.093L263.655,391.777z"/>
</g>
<g>
</g>
<g>
</g>
<g>
</g>
<g>
</g>
<g>
</g>
<g>
</g>
<g>
</g>
<g>
</g>
<g>
</g>
<g>
</g>
<g>
</g>
<g>
</g>
<g>
</g>
<g>
</g>
<g>
</g>
</svg>
